<svg xmlns="http://www.w3.org/2000/svg" aria-hidden="true" style="width:0;height:0;position:absolute;overflow:hidden"><symbol viewBox="0 0 64 64" id="logo"><path d="M31.9 2C18.8 2 7.7 10.4 3.6 22h56.6C56.1 10.4 45 2 31.9 2z" fill="#3e4347"/><path d="M31.9 62c13.1 0 24.2-8.3 28.3-20H3.6c4.1 11.7 15.2 20 28.3 20z" fill="#ffe62e"/><path d="M3.6 22c-1.1 3.1-1.7 6.5-1.7 10s.6 6.9 1.7 10h56.6c1.1-3.1 1.7-6.5 1.7-10s-.6-6.9-1.7-10H3.6" fill="#ed4c5c"/></symbol><symbol viewBox="0 0 512 512" id="home"><path class="st0" d="M434.162 293.382v200.48H308.321V368.583H203.682v125.279H77.841v-200.48l178.161-139.52z"/><path class="st0" d="M0 242.682 256 38.93l256 203.752-29.79 43.082L256 105.722 29.79 285.764zM439.853 18.138v130.4l-63.28-50.4v-80z"/></symbol><symbol viewBox="0 0 299.021 299.021" id="back"><path d="M292.866 254.432a6.156 6.156 0 0 1-5.5-3.399c-.354-.684-28.541-52.949-146.169-54.727v51.977a6.146 6.146 0 0 1-3.432 5.513 6.157 6.157 0 0 1-6.461-.63L2.417 154.392A6.154 6.154 0 0 1 0 149.516c0-1.919.898-3.72 2.417-4.888l128.893-98.77a6.164 6.164 0 0 1 6.461-.639 6.14 6.14 0 0 1 3.432 5.509v54.776c3.111-.198 7.164-.37 11.947-.37 43.861 0 145.871 13.952 145.871 143.136a6.15 6.15 0 0 1-4.75 5.993 5.552 5.552 0 0 1-1.405.169z"/></symbol></svg>