<svg xmlns="http://www.w3.org/2000/svg" aria-hidden="true" style="position:absolute;width:0;height:0;overflow:hidden">

   <symbol viewBox="0 0 64 64" id="logo" >
      <path d="M31.9 2C18.8 2 7.7 10.4 3.6 22h56.6C56.1 10.4 45 2 31.9 2z" fill="#3e4347"></path><path d="M31.9 62c13.1 0 24.2-8.3 28.3-20H3.6c4.1 11.7 15.2 20 28.3 20z" fill="#ffe62e"></path><path d="M3.6 22c-1.1 3.1-1.7 6.5-1.7 10s.6 6.9 1.7 10h56.6c1.1-3.1 1.7-6.5 1.7-10s-.6-6.9-1.7-10H3.6" fill="#ed4c5c"></path>
   </symbol>

   <symbol viewBox="0 0 512 512" id="home">
      <g>
      <polygon class="st0" points="434.162,293.382 434.162,493.862 308.321,493.862 308.321,368.583 203.682,368.583 203.682,493.862 77.841,493.862 77.841,293.382 256.002,153.862"/>
      <polygon class="st0" points="0,242.682 256,38.93 512,242.682 482.21,285.764 256,105.722 29.79,285.764"/>
      <polygon class="st0" points="439.853,18.138 439.853,148.538 376.573,98.138 376.573,18.138"/>
      </g>
   </symbol>

   <symbol viewBox="0 0 299.021 299.021" id="back">
      <g><g><path d="M292.866,254.432c-2.288,0-4.443-1.285-5.5-3.399c-0.354-0.684-28.541-52.949-146.169-54.727v51.977c0,2.342-1.333,4.48-3.432,5.513c-2.096,1.033-4.594,0.793-6.461-0.63L2.417,154.392C0.898,153.227,0,151.425,0,149.516c0-1.919,0.898-3.72,2.417-4.888l128.893-98.77c1.87-1.426,4.365-1.667,6.461-0.639c2.099,1.026,3.432,3.173,3.432,5.509v54.776c3.111-0.198,7.164-0.37,11.947-0.37c43.861,0,145.871,13.952,145.871,143.136c0,2.858-1.964,5.344-4.75,5.993C293.802,254.384,293.34,254.432,292.866,254.432z"/></g></g>
   </symbol>

</svg>